<svg xmlns="http://www.w3.org/2000/svg" viewBox="0 0 3517.29 3517.29"><defs><style>.cls-1{fill:#231f20;stroke:#fff;stroke-miterlimit:10;}.cls-2,.cls-3{fill:#fff;}.cls-2{fill-rule:evenodd;}.cls-4{fill:#c0bfbf;}</style></defs><title>Asset 2</title><g id="Layer_2" data-name="Layer 2"><g id="Layer_4" data-name="Layer 4"><g id="Layer_2-2" data-name="Layer 2"><rect class="cls-1" x="0.5" y="0.5" width="3516.29" height="3516.29"/></g><g id="Book"><path class="cls-2" d="M2505.89,1096.18l17.83,1.62,4.86,6.49c-7.36,58.9-114.54,144.26-150.74,188-135.54,163.82-289.72,303.8-410.1,484.66-37.76,56.73-73.43,118.27-102.12,183.16q-23.49,54.3-47,108.6c75.81-290.21,296.27-527.15,460.34-737.52C2338.12,1255.37,2409.72,1130.43,2505.89,1096.18Z"/><path class="cls-2" d="M1270.75,1183.71c67.92,27.78,201.23,297.91,241.51,377.68,15.93,31.54,61.33,93.93,58.36,129.67l-1.62-1.62c-60.1-125.71-131.78-243.37-204.24-358.23C1344.84,1299.64,1272.36,1215.74,1270.75,1183.71Z"/><path class="cls-2" d="M1283.72,1232.34l3.24,4.86Z"/><path class="cls-2" d="M1287,1237.2l3.24,4.86Z"/><path class="cls-2" d="M1290.2,1242.06l3.24,4.87Z"/><path class="cls-2" d="M1293.44,1246.93l48.63,69.7A2635,2635,0,0,1,1502.54,1576c14.59,26.9,58.7,81.66,55.11,113.47l-165.33-286.9Q1342.88,1324.74,1293.44,1246.93Z"/><path class="cls-2" d="M885,1250.17c50.33,14.45,100.21,78.7,139.4,110.22,109.7,88.23,219.73,180.24,316.08,282,26.43,27.93,68.08,55.91,84.29,92.39l-4.87-1.62c-108.67-137.19-263.69-252-400.36-361.46C997.6,1354.2,880.5,1267.87,885,1250.17Z"/><path class="cls-2" d="M880.11,1295.55c73.23,25.49,138.48,100.67,197.75,145.89,152.61,116.45,298.41,236.55,415,389,25,32.75,61.4,67.56,76.19,108.6l-136.16-170.2c-92.75-110.81-218.69-205.23-333.91-293.38-44.68-34.19-203.07-134.72-222.07-176.68Z"/><path class="cls-2" d="M1084.34,1302c48.72,19.36,122,110.64,160.47,149.12,143.07,143.09,277.81,293.4,376.06,481.42,21.35,40.85,101.59,196.32,95.63,244.75v-3.24q-17.82-48.62-35.66-97.25-42.13-90-84.29-179.92c-89.93-155.35-211-284-333.91-406.86C1235,1462.42,1080.86,1331.77,1084.34,1302Z"/><path class="cls-2" d="M2836.56,1318.25l3.24,1.62c-6.92,12.57-101.34,64.87-103.74,63.21l-1.62-1.62,1.62-1.62Z"/><path class="cls-2" d="M708.29,1324.73,944.94,1469C918.87,1470.51,728.67,1348,708.29,1324.73Z"/><path class="cls-2" d="M2428.08,1324.73l8.11,6.48c-12.41,66.16-128,150.49-186.41,199.38-148.62,124.32-264.58,268.57-371.19,436L1877,1965h-1.62c98.1-205,252.48-362.67,403.61-515.45,40.25-40.68,77.55-93.67,128.05-123.19l1.62,9.73Z"/><path class="cls-2" d="M852.55,1337.7c42.37,4.21,133.62,90.94,168.58,116.7,131.19,96.72,275.5,190.35,379.29,314.46l82.67,92.4-4.86-1.63c-94.46-137.54-315-280.72-455.48-379.29-59.89-42-123.64-77.78-173.44-129.67Z"/><path class="cls-2" d="M2583.69,1353.91l9.73,4.86c-1.46,70.72-145.16,141.77-194.51,176.68-151.23,107-305.59,222.15-421.44,364.71L1872.11,2046l-48.63,84.29c80.07-232.15,339.5-454.36,518.7-596.5C2421.38,1471,2489.83,1402.67,2583.69,1353.91Z"/><path class="cls-2" d="M2836.56,1375h8.1l1.62,6.48-3.24,1.62L2491.3,1574.35l-1.62-1.62,1.62-1.62Z"/><path class="cls-2" d="M2869,1409c8.43,2.75,4.22-.5,8.11,6.48-68.87,47.35-158.37,98.79-239.9,128.06Z"/><path class="cls-2" d="M2178.46,1441.44c6.54,9-42.59,62.68-53.49,76.18l-3.24-1.62v-3.24Z"/><path class="cls-2" d="M2402.15,1451.16c4.93,8.83-117.64,103.68-139.4,121.57-144.94,119.17-278.08,260.28-377.67,424.68l-77.81,157.23q-15.39,42.95-30.8,85.91h-1.62l1.62-6.48c36.35-82.79,52.36-166.62,94-239.9C2009.21,1750.18,2194.79,1623,2402.15,1451.16Z"/><path class="cls-2" d="M815.27,1454.4l55.11,8.11,184.79,110.22c162,102,324.38,207.5,444.13,351.74,31.85,38.37,73.28,74.47,94,123.19l-3.24-1.62c-124.14-200.79-346.54-334.42-552.73-453.86C1002.65,1572.09,812.51,1476.24,815.27,1454.4Z"/><path class="cls-2" d="M1176.73,1459.27l43.77,35.66-1.62,3.24-4.86-1.62Z"/><path class="cls-2" d="M2710.12,1477.1h6.49l-144.26,82.66c-117.51,68.43-240.76,130.44-350.12,207.48-95.65,67.38-191.12,145-264.21,235l-116.71,160.48c135.75-256.38,366.49-413.09,616-556Z"/><path class="cls-2" d="M2933.81,1483.58l4.86,1.62c-9.94,8.36-32.79,22-47,19.45l19.45-11.34Z"/><path class="cls-2" d="M2967.85,1501.41h9.73v4.86l-1.63,1.62-517.07,215.59,1.62-1.62Z"/><path class="cls-2" d="M1243.19,1517.62l40.53,35.66v4.86l-4.87-1.62Z"/><path class="cls-2" d="M2841.42,1525.72l4.86,1.63-25.93,11.34v-3.24Z"/><path class="cls-2" d="M2110.38,1529h4.87q-15.4,19.44-30.8,38.9Z"/><path class="cls-2" d="M1419.87,1556.52c105.36,22.09,202.73,296.14,243.14,403.61,13.51,35.93,50.21,109.17,42.14,150.75q-15.39-44.58-30.79-89.15c-26.2-66.84-57.32-132-92.4-191.27-51.6-87.15-133.7-164.59-170.19-261Z"/><path class="cls-2" d="M2940.29,1564.63c3.79,1.62,42.5,9.72-55.11,48.39,0,0-88.3,27.44-128,42.38-133.29,50.08-269.75,94.71-397.12,150.74L2163.87,1911.5c23.63-33,82.38-53.88,118.33-74.56,140.52-80.84,306.45-139.49,465.2-201Z"/><path class="cls-2" d="M878.49,1574.35c89.56,5.26,152.1,43.28,212.34,77.81,76.33,43.75,151.06,83.08,220.44,132.91l139.4,116.71v4.86h-1.62l-4.86-1.62c-104.46-100.46-264.2-172.6-405.23-233.41-58.93-25.41-118.51-44.13-167-79.43Q875.24,1583.27,878.49,1574.35Z"/><path class="cls-2" d="M2123.35,1587.32l-53.49,68.08-123.19,170.19c-14.87,24.39-31.64,79.23-56.73,92.4l9.72-21.07,60-103.74C2005.84,1720,2062.33,1646.51,2123.35,1587.32Z"/><path class="cls-2" d="M2061.76,1595.42h4.86l-17.83,22.7Z"/><path class="cls-2" d="M2601.52,1618.12l8.11,1.62-188,92.39c-91.58,52.35-181,102.33-264.21,162.09-63.22,45.41-130.54,101-179.92,160.47l-82.67,98.88c79.91-171.65,333.15-323.75,499.24-418.2Z"/><path class="cls-2" d="M2997,1642.43c4.35,5.07,3.19,0,1.62,6.48L2916,1668.37v-1.63Z"/><path class="cls-2" d="M1291.82,1648.91c54.58,26.28,309.76,301.69,308,359.85-50.66-91.21-121.94-175.73-192.89-248Z"/><path class="cls-2" d="M2024.47,1648.91l4.87,1.63-69.7,110.22-1.62-1.62,1.62-8.11Z"/><path class="cls-2" d="M922.55,1664.45c185.66,47.63,487.71,159.64,683.73,438.32a958.38,958.38,0,0,1,60.34,97.79l-3.61,2.71C1263.45,1730.83,747.39,1836,818.51,1681,842.13,1629.55,922.55,1664.45,922.55,1664.45Z"/><path class="cls-2" d="M2903,1668.37l3.24,1.62-42.14,14.58V1683Z"/><path class="cls-2" d="M2708.5,1721.86l4.87,1.62Z"/><path class="cls-2" d="M2697.16,1725.1l4.86,1.62Z"/><path class="cls-2" d="M3128.32,1736.44c7.61,5.6,11,4.72,1.62,11.35-16.84,11.93-335.36,72.53-346.88,66.46Z"/><path class="cls-2" d="M2421.6,1739.69l6.48,1.62C2421.66,1743.15,2425.26,1742.16,2421.6,1739.69Z"/><path class="cls-2" d="M2740.92,1755.9l8.11,1.62-154,38.9-223.69,68.08,66.46-25.94,201-58.35Z"/><path class="cls-2" d="M364.65,1760.76l134.54,24.31v3.24C465.15,1787.84,380.49,1782.2,364.65,1760.76Z"/><path class="cls-2" d="M2552.89,1767.24l4.87,1.62-17.83,6.49Z"/><path class="cls-2" d="M3157.5,1799.66h8.1l1.62,4.86-1.62,1.62c-20.85,11.41-338.15,56.15-348.5,50.25Z"/><path class="cls-2" d="M380.86,1806.14l233.42,25.94L731,1848.29v3.24C686.72,1849,384,1813.59,380.86,1806.14Z"/><path class="cls-2" d="M2705.26,1811l8.11,1.62-196.14,50.25c-87.91,25.21-172.66,55.49-252.86,90.77L2078,2059c110.45-96.32,272.78-154.79,431.16-201Z"/><path class="cls-2" d="M808.79,1827.22l4.86,1.62-4.86,3.24Z"/><path class="cls-2" d="M818.51,1828.84l13,3.24v3.24l-13-1.62Z"/><path class="cls-2" d="M836.34,1832.08l37.28,8.1v3.24C861.6,1842.24,842.46,1839.92,836.34,1832.08Z"/><path class="cls-2" d="M881.73,1841.8l19.45,4.87C893.6,1849,886.46,1846.94,881.73,1841.8Z"/><path class="cls-2" d="M737.47,1848.29l4.86,1.62-4.86,3.24Z"/><path class="cls-2" d="M912.52,1848.29l11.35,3.24Z"/><path class="cls-2" d="M927.11,1851.53l11.35,3.24Z"/><path class="cls-2" d="M1672.74,1854.77c51.44,17.74,76,283.11,76.18,367.95h-4.86c-2-94.39-27.21-183.44-48.63-264.21C1687.34,1928,1670.16,1887.55,1672.74,1854.77Z"/><path class="cls-2" d="M2752.27,1864.5l1.62,4.86Z"/><path class="cls-2" d="M2993.78,1866.12c19.07-1,28.64,3.18,32.42,17.83,4.51,13.57-2.26,23-8.1,30.8-222.87,59.89-449.19,29.45-682.41,95.63-102.94,29.21-199.71,65.83-282,116.71l-110.22,77.8,1.62-4.86c46.58-33.23,86.39-75.56,136.16-107,117.87-74.42,257.51-123.77,413.33-160.47l350.12-50.25Z"/><path class="cls-2" d="M486.22,1875.84l235,21.08c269.1,39,504.22,66.29,693.75,176.68,28.5,16.6,66.15,31.39,85.91,56.73h-1.62V2132c-133.09-73.34-264-132.72-442.51-168.58l-296.63-30.79c-56-6.94-285.08-2-291.77-40.53Z"/><path class="cls-2" d="M2332.45,1875.84l3.24,1.62-13,6.49Z"/><path class="cls-2" d="M2865.73,1942.3l21.07,1.62v3.24l-1.62,1.62C2870.71,1949.46,2868.92,1947.77,2865.73,1942.3Z"/><path class="cls-2" d="M1594.93,1979.58l4.86,8.11-4.86-1.62Z"/><path class="cls-2" d="M857.41,2020.11a1140.93,1140.93,0,0,1,674.31,181.54v3.24l-1.63,1.62-139.39-42.14a1113.37,1113.37,0,0,0-121.57-22.7c-330.91-43-513.26,11.22-620.81,3.25-6.42-.48-19.41-20.45-18-40.12,1.73-25,28.85-41.65,44.88-51.2C736.42,2017.08,849.31,2019.54,857.41,2020.11Z"/><path class="cls-2" d="M1761.89,2021.73l9.72,4.86-8.1,201h-4.87Q1760.26,2124.67,1761.89,2021.73Z"/><path class="cls-2" d="M2739.3,2037.94c58-.74,340.93-3.06,358.22,17.83l-1.62,1.62C3054.88,2062,2749,2048.85,2739.3,2037.94Z"/><path class="cls-2" d="M2439.43,2089.8c188.17-1.82,359.39,4.78,525.18,27.56,57.21,7.86,152.28-5,168.57,43.77l-4.86,4.86c-76.43,8.34-157.85-10.54-225.31-22.7l-324.18-40.52-222.07-4.86Z"/><path class="cls-2" d="M2387.56,2136.81c219.53-2.89,391,36.85,568.94,76.18L3198,2266.48l-598.12-97.25c-188.3-29.44-410-8.48-552.73,45.39L1911,2276.21c49.23-66.18,250-109.47,353.36-128.05Z"/><path class="cls-2" d="M277.12,2172.47l4.87,1.62-1.62,9.73q-25.94,19.44-51.87,38.9l-1.62-1.62,1.62-6.48A639.57,639.57,0,0,0,277.12,2172.47Z"/><path class="cls-2" d="M3262.86,2193.54l154,110.23v4.86l-1.62,1.62C3383,2297.84,3271.59,2218.81,3262.86,2193.54Z"/><path class="cls-2" d="M2321.1,2203.27c183.16-1.67,336,17.74,492.76,43.76l295,35.66,217.2,24.32v4.86c-465.85,1.15-956-72.89-1408.58-11.35V2294c73.13-31.42,150.2-61.18,241.52-77.8Z"/><path class="cls-2" d="M1124.87,2204.89l154,1.62v4.86c-185.06-.68-343,8.84-502.48,34L590,2266.48,1014.64,2213Z"/><path class="cls-2" d="M1287,2208.13l11.34,1.62V2213C1288.93,2212.06,1291.25,2213.55,1287,2208.13Z"/><path class="cls-2" d="M1312.89,2209.75l4.86,1.62-4.86,3.25Z"/><path class="cls-2" d="M1123.24,2214.62c127.88-1.72,413.52,7.84,460.35,69.69-295.31-7.53-620.21-27.49-912.58,8.11l-424.68,19.45Z"/><path class="cls-2" d="M210.67,2230.82h3.24l1.62,6.49-13,9.72c-5.87-4.08-4.18-1.45-6.48-9.72Z"/><path class="cls-2" d="M186.35,2247l6.49,1.62-1.62,4.87c-20.25,16.8-56.62,58.08-87.53,55.11l1.62-6.49C134.93,2284.21,158.27,2265.34,186.35,2247Z"/><path class="cls-2" d="M578.62,2266.48h6.48v4.87C578.11,2268.4,582.58,2271.85,578.62,2266.48Z"/><path class="cls-2" d="M567.27,2268.11l4.86,1.62-4.86,3.24Z"/><path class="cls-2" d="M554.3,2269.73h6.49v4.86C553.8,2271.64,558.27,2275.09,554.3,2269.73Z"/><path class="cls-2" d="M543,2271.35l4.86,1.62-4.86,3.24Z"/><path class="cls-2" d="M1338.83,2285.94h191.26v4.86L593.2,2313.49c-51.09,0-323.77,17.69-346.87,3.24l852.6-27.55Z"/><path class="cls-2" d="M1578.72,2285.94c6.44,2.43,3,.6,4.87,4.86Z"/><path class="cls-2" d="M1590.07,2287.56h8.1v4.86C1590,2290.16,1594.3,2293,1590.07,2287.56Z"/><path class="cls-2" d="M1491.19,2295.66c72.51-.21,116.44,11.4,170.2,17.83l68.08-6.48,131.29,14.59,69.7-13h184.79l865.57,9.72L3339,2320c39.41,0,110.23-20.3,115.09,19.45l-1.63,1.62-3.24,3.24-1034.14-4.86-423.06-6.49c-21.61,0-78-12.42-82.67-11.34-17,3.87-28.21,38.74-48.63,47-60.43,24.45-190,15.73-231.79-16.21l-30.8-43.76c-70.83,35.95-232.31,6.49-327.42,17.83l-831.53,17.83-291.77,3.24c-24.33.69-65.32,6.81-84.29-3.24L68,2324.84c22.73-11.57,62.14-3.63,95.63,0l252.86-3.24Z"/><path class="cls-2" d="M2141.18,2300.52l471.69,4.87v4.86L2262.75,2307C2240.48,2307,2148.87,2309.8,2141.18,2300.52Z"/><path class="cls-2" d="M2633.94,2307h45.39v4.86C2665.1,2312.71,2640.43,2314.8,2633.94,2307Z"/><path class="cls-2" d="M188,2316.73h43.77v4.87L179.87,2320H188Z"/></g><g id="Bookmark"><path class="cls-3" d="M1773.11,1217.38a1,1,0,0,1,.6.44l8.49,15,6.49,12.16a.9.9,0,0,1-.55,1.29l-2.58.76a.92.92,0,0,0-.65.92c.09,1.77,1.37,6.54,11.48,13l.07,0c3.17,2.53,10.8,8.83,10.8,8.83s.64.63,5.68-2.89c-1-2.66-.78.76-1-2.66-.18-3.13,9-5.31,10.51-5.64a.85.85,0,0,0,.37-.18c1.73-1.44,16.54-13.86,18.89-21.75a1.08,1.08,0,0,1,.08-.19l1.71-2.76a.91.91,0,0,0-.56-1.36,5.36,5.36,0,0,0-4.16.82c-2.68.57-4,3.53-10,1a2.68,2.68,0,0,1-1.63-2.45c0-1.63,0-1.62-.65-2.36-.13,0-.27-1.32-.27-1.32-1.21-.25-1-2.25-1.13-3.47a12,12,0,0,0-.78-3.28.92.92,0,0,0-.71-.49l-1.61-.18a1.89,1.89,0,0,1-1.55-2.6,22.07,22.07,0,0,0,1.43-9.43.91.91,0,0,0-.53-.8c-2.85-1.29-9.54-3.62-4.79-13.93,0-.1.15-.18.2-.28,2.25-4.33,3.6-10.62,21.82-16.51a23.9,23.9,0,0,1,2.76-.51c2,.19,1.65-.17,4.07.87,1.66.71,4-2,16.9,6.65a.92.92,0,0,1,.28.31c1.51,2.65,9.56,9.93,5.4,25.63l0,.09c-.64,1.62-1.93,8.67-2.33,10.87a.88.88,0,0,1-.79.73l-2.33.24a.89.89,0,0,1-.83-.38h0c-.47-.68-.73.7-.85,1.51l.21,4.86c-.08.5,1.15,1.23,1.65,1.28a7.75,7.75,0,0,0,4.93-.63.83.83,0,0,1,.58-.08,5,5,0,0,1,2.29,1.45.87.87,0,0,1,.23.81l-.7,3.33a.89.89,0,0,0,.32.89c3.6,2.81,27.66,24.06,9.12,77.77a.9.9,0,0,1-.17.3c-2.82,3.17-5.09,8.51-4.91,17.05a.9.9,0,0,1-.88.93c-2.47.09-7.83-1.56-7.83-1.56l1.74,1.66a.9.9,0,0,1,0,1.33l-7.58,6.7s-16.27,15.46-36-5.6c-4.48-4.37-16.09-18.73-17.72-20.74a.85.85,0,0,0-.43-.29c-.82-.23-3.63-1.4-7.54-6.92a1,1,0,0,0-1-.35c-3.14.93,2.24-6.82-6.51,3.34a1.37,1.37,0,0,1-.18.16,16.48,16.48,0,0,0-5.38,5.51l-2.52,4.83a.84.84,0,0,1-.18.24l-2.36,2.19a.88.88,0,0,1-.49.24l-2.79.39a.93.93,0,0,1-.71-.21l-2-1.68a.91.91,0,0,0-1.18,0l-10.25,8.8a.23.23,0,0,0-.07.07c-.27.3-1.8,2.28-2,9.1a.88.88,0,0,1-.49.76c-5.73,3,3.9,10.88-42.32-.45l-.12,0c-9.52-3.61-9.17-8.39-3.76-9.38l5.33-1,.18,0,15.28.25a1,1,0,0,0,.39-.08l13.64-6.38a1,1,0,0,0,.24-.17l11.75-11.12.07-.07,2-2.39a.92.92,0,0,0,.15-.94l-1.39-3.33a.9.9,0,0,1,.16-1l27-29.82a.88.88,0,0,0,.21-.8c-.52-2.21-3.31-11.69-13.05-15.52-5.09-2-4.22-1.12-5.33-10.94a36.41,36.41,0,0,1,.12-7.66.86.86,0,0,0-.1-.54"/><polygon class="cls-4" points="1762.79 1224.54 1777.21 1207.13 1791.49 1230.34 1776.36 1246.58 1762.79 1224.54"/><polygon class="cls-3" points="1783.76 1217.77 1798.28 1241.36 1776.36 1246.58 1762.79 1224.54 1783.76 1217.77"/><path class="cls-3" d="M1819.88,1606.38c22.24,21.18,42.33,47.52,60.22,75.55v-6.6a521.54,521.54,0,0,0-50.44-60.49Z"/><path class="cls-3" d="M1722.81,1599l1.67.43.55.15c4.29,27.87,7.64,57,5.24,89.75l-10,56.75c-3.3,13.27-6.81,26-10.51,38.28l0,54.35c25.07-60.93,36.61-135.59,31-187.6l-9-52.17c18.32,22.76,15.34,95.46,12.53,132.58l-7,43.26a609.38,609.38,0,0,1-26.37,81.92l26.91-34q7.77-27.5,15.54-55-2.3,14.54-4.57,29.07-2.22,9-4.5,17.73l40.81-51.59c-1.12-36-5.16-70.56-14.82-101.78q-8.46-22.35-16.9-44.72l1.52,1c7.26,18.93,18.25,36.34,24.6,56.21,7.82,24.44,12.8,50.29,15.6,77.44l19.76,25c-1.1-9.15-2.35-18.23-3.81-27.21q-9.8-36.64-19.58-73.3c15.18,30.36,22.84,66.89,26.83,104.86l14,17.73c-.07-1.56-.13-3.11-.2-4.67.21,1.73.42,3.47.62,5.21l25.47,32.2c-1.48-12.14-3.13-24.2-5.06-36.12l-18.72-76.64c9.2,11,11.17,33.05,15.07,47.21,6.46,23.49,11.15,48.2,14.94,73.43l10.58,13.37q-1.15-8.05-2.3-16.11l.41.7q1.29,8.13,2.57,16.27l4.47,5.66v-33.21l-.25-1.2c-9.82-36.07-19-71.18-32.12-105-10-25.72-23-53.75-39.06-76l-26.58-37.14c50.74,41.79,80.25,139,98,204.38v-55.6c-.48-1.31-.95-2.62-1.44-3.93-14.61-38.79-32.74-78.43-57.15-111.5l-44.67-54.29c48.88,44.67,80.07,99.19,103.26,158.6v-49.89a433.51,433.51,0,0,0-25.29-38.68l-40.68-49.1-24.59-24.17c4.15,2.75,8.23,5.71,12.25,8.84l-19.15-16.56L1755.91,1556c0-.19.1-.38.14-.56l2.08,1.13c25.17,19.82,52.51,32.76,73.94,53.56a411.31,411.31,0,0,1,48,55.73v-5.48c-12.35-15.23-25.46-30.18-39.3-45l.7-.41.15-.56a416.1,416.1,0,0,1,38.45,37v-3c-8.06-7-21.62-16.27-23.63-24.84l6.37,5.21,17.26,17v-1.94a403.23,403.23,0,0,0-35.92-32.35l-33.08-25.77c25.1,14,47.92,31.29,69,50.54V1335H1710.16l-.27,342.39C1715.29,1651.25,1719.71,1625.13,1722.81,1599Zm147.59,222.74-1.13,2.08C1869.21,1821.48,1869.23,1822.81,1870.4,1821.77Zm-38.78-42.68c-.28.33-.57.65-.85,1-.35-1.67-.71-3.35-1.07-5Z"/></g></g></g></svg>